<svg width="272" height="160" viewBox="0 0 272 160" fill="none" xmlns="http://www.w3.org/2000/svg">
<path d="M0 12C0 5.37258 5.37258 0 12 0H260C266.627 0 272 5.37258 272 12V148C272 154.627 266.627 160 260 160H12C5.37258 160 0 154.627 0 148V12Z" fill="#1EB62F"/>
<g clip-path="url(#clip0_1_24)">
<path fill-rule="evenodd" clip-rule="evenodd" d="M45.7184 22.0848L47.0928 23.392L29.7376 33.7728L21.3344 28.704L22.12 27.0704L29.736 31.6064L45.7184 22.0848ZM42.224 20L44.0688 20.9808L29.7376 29.5632L23.0624 25.5984L24.2016 24.168L29.7376 27.48L42.224 20ZM48.3088 24.7408L49.3296 26.1712L29.7376 37.8992L20.2752 32.2608L20.7072 30.4624L29.7376 35.856L48.3088 24.7408ZM51.136 30.0128C51.712 31.7024 52 33.472 52 35.3248C52 37.1776 51.712 38.976 51.136 40.72L50.744 41.824C49.946 43.7919 48.7874 45.5934 47.328 47.136C45.8763 48.6342 44.1413 49.829 42.224 50.6512C40.2623 51.5388 38.134 51.9986 35.9808 52C33.827 52.0037 31.6977 51.5437 29.7376 50.6512C27.8429 49.8088 26.1242 48.6161 24.672 47.136C23.1954 45.607 22.0346 43.8019 21.256 41.824C20.4247 39.7581 19.9983 37.5517 20 35.3248V34.2208L29.7376 39.984L50.272 27.7232L51.136 30.0112V30.0128Z" fill="white"/>
</g>
<g clip-path="url(#clip1_1_24)">
<path fill-rule="evenodd" clip-rule="evenodd" d="M234.853 121.692C232.414 123.667 230.86 126.655 230.86 130C230.86 133.345 232.414 136.333 234.853 138.308C233.167 139.417 231.196 140.005 229.184 140C223.559 140 219 135.523 219 130C219 124.477 223.559 120 229.184 120C231.283 120 233.233 120.623 234.853 121.692ZM236.147 138.308C238.586 136.333 240.14 133.345 240.14 130C240.14 126.655 238.586 123.667 236.147 121.692C237.833 120.583 239.804 119.995 241.816 120C247.441 120 252 124.477 252 130C252 135.523 247.441 140 241.816 140C239.804 140.005 237.833 139.417 236.147 138.308ZM235.5 122.155C237.856 123.988 239.368 126.822 239.368 130C239.368 133.18 237.856 136.013 235.5 137.845C233.144 136.012 231.632 133.178 231.632 130C231.632 126.82 233.144 123.987 235.5 122.155Z" fill="white"/>
</g>
<path d="M76.4316 38.2637C76.321 39.7936 75.7546 40.998 74.7324 41.877C73.7168 42.7559 72.3757 43.1953 70.709 43.1953C68.8861 43.1953 67.4505 42.5833 66.4023 41.3594C65.3607 40.1289 64.8398 38.4427 64.8398 36.3008V35.4316C64.8398 34.0645 65.0807 32.86 65.5625 31.8184C66.0443 30.7767 66.7311 29.9792 67.623 29.4258C68.5215 28.8659 69.5632 28.5859 70.748 28.5859C72.3887 28.5859 73.7103 29.0254 74.7129 29.9043C75.7155 30.7832 76.2949 32.0169 76.4512 33.6055H73.5215C73.4499 32.6875 73.1927 32.0234 72.75 31.6133C72.3138 31.1966 71.6465 30.9883 70.748 30.9883C69.7715 30.9883 69.0391 31.3398 68.5508 32.043C68.069 32.7396 67.8216 33.8236 67.8086 35.2949V36.3691C67.8086 37.9056 68.0397 39.0286 68.502 39.7383C68.9707 40.4479 69.7064 40.8027 70.709 40.8027C71.6139 40.8027 72.2878 40.5977 72.7305 40.1875C73.1797 39.7708 73.4368 39.1296 73.502 38.2637H76.4316ZM83.4141 33.0195C84.7682 33.0195 85.849 33.4688 86.6562 34.3672C87.4635 35.2656 87.8672 36.4863 87.8672 38.0293V38.166C87.8672 39.6895 87.418 40.9102 86.5195 41.8281C85.6211 42.7461 84.4134 43.2051 82.8965 43.2051C81.373 43.2051 80.1589 42.7103 79.2539 41.7207C78.3555 40.7246 77.9062 39.3737 77.9062 37.668V37.1992C77.9193 34.8229 78.3197 32.9642 79.1074 31.623C79.9017 30.2754 81.0931 29.4258 82.6816 29.0742C83.515 28.8919 84.0521 28.7129 84.293 28.5371C84.5339 28.3548 84.6543 28.1042 84.6543 27.7852H86.9395C86.9395 28.8073 86.6628 29.5755 86.1094 30.0898C85.5625 30.6042 84.5859 31.0013 83.1797 31.2812C82.3464 31.4505 81.6888 31.7793 81.207 32.2676C80.7253 32.7559 80.3997 33.4427 80.2305 34.3281C81.1289 33.4557 82.1901 33.0195 83.4141 33.0195ZM82.877 35.3047C82.2064 35.3047 81.679 35.5293 81.2949 35.9785C80.9173 36.4277 80.7285 37.1569 80.7285 38.166C80.7285 39.0645 80.9141 39.7513 81.2852 40.2266C81.6562 40.6953 82.1934 40.9297 82.8965 40.9297C83.5801 40.9297 84.1074 40.6986 84.4785 40.2363C84.8496 39.7741 85.0384 39.0938 85.0449 38.1953V37.9609C85.0449 37.0951 84.8529 36.4375 84.4688 35.9883C84.0911 35.5326 83.5605 35.3047 82.877 35.3047ZM94.4199 43.1953C92.8704 43.1953 91.6074 42.7201 90.6309 41.7695C89.6608 40.819 89.1758 39.5527 89.1758 37.9707V37.6973C89.1758 36.6361 89.3809 35.6888 89.791 34.8555C90.2012 34.0156 90.7806 33.3711 91.5293 32.9219C92.2845 32.4661 93.1439 32.2383 94.1074 32.2383C95.5527 32.2383 96.6888 32.694 97.5156 33.6055C98.349 34.5169 98.7656 35.8092 98.7656 37.4824V38.6348H92.0371C92.1283 39.3249 92.4017 39.8783 92.8574 40.2949C93.3197 40.7116 93.9023 40.9199 94.6055 40.9199C95.6927 40.9199 96.5423 40.526 97.1543 39.7383L98.541 41.291C98.1178 41.89 97.5449 42.3587 96.8223 42.6973C96.0996 43.0293 95.2988 43.1953 94.4199 43.1953ZM94.0977 34.5234C93.5378 34.5234 93.082 34.7122 92.7305 35.0898C92.3854 35.4674 92.1641 36.0078 92.0664 36.7109H95.9922V36.4863C95.9792 35.8613 95.8099 35.3796 95.4844 35.041C95.1589 34.696 94.6966 34.5234 94.0977 34.5234ZM109.889 37.8145C109.889 39.4421 109.518 40.7474 108.775 41.7305C108.04 42.707 107.044 43.1953 105.787 43.1953C104.719 43.1953 103.857 42.8242 103.199 42.082V47.0625H100.377V32.4336H102.994L103.092 33.4688C103.775 32.6484 104.667 32.2383 105.768 32.2383C107.07 32.2383 108.082 32.7201 108.805 33.6836C109.527 34.6471 109.889 35.9753 109.889 37.668V37.8145ZM107.066 37.6094C107.066 36.6263 106.891 35.8678 106.539 35.334C106.194 34.8001 105.689 34.5332 105.025 34.5332C104.14 34.5332 103.531 34.8717 103.199 35.5488V39.875C103.544 40.5716 104.16 40.9199 105.045 40.9199C106.393 40.9199 107.066 39.8164 107.066 37.6094ZM116.891 33.0195C118.245 33.0195 119.326 33.4688 120.133 34.3672C120.94 35.2656 121.344 36.4863 121.344 38.0293V38.166C121.344 39.6895 120.895 40.9102 119.996 41.8281C119.098 42.7461 117.89 43.2051 116.373 43.2051C114.85 43.2051 113.635 42.7103 112.73 41.7207C111.832 40.7246 111.383 39.3737 111.383 37.668V37.1992C111.396 34.8229 111.796 32.9642 112.584 31.623C113.378 30.2754 114.57 29.4258 116.158 29.0742C116.992 28.8919 117.529 28.7129 117.77 28.5371C118.01 28.3548 118.131 28.1042 118.131 27.7852H120.416C120.416 28.8073 120.139 29.5755 119.586 30.0898C119.039 30.6042 118.062 31.0013 116.656 31.2812C115.823 31.4505 115.165 31.7793 114.684 32.2676C114.202 32.7559 113.876 33.4427 113.707 34.3281C114.605 33.4557 115.667 33.0195 116.891 33.0195ZM116.354 35.3047C115.683 35.3047 115.156 35.5293 114.771 35.9785C114.394 36.4277 114.205 37.1569 114.205 38.166C114.205 39.0645 114.391 39.7513 114.762 40.2266C115.133 40.6953 115.67 40.9297 116.373 40.9297C117.057 40.9297 117.584 40.6986 117.955 40.2363C118.326 39.7741 118.515 39.0938 118.521 38.1953V37.9609C118.521 37.0951 118.329 36.4375 117.945 35.9883C117.568 35.5326 117.037 35.3047 116.354 35.3047ZM129.156 43C129.026 42.7461 128.932 42.4303 128.873 42.0527C128.189 42.8145 127.301 43.1953 126.207 43.1953C125.172 43.1953 124.312 42.8958 123.629 42.2969C122.952 41.6979 122.613 40.9427 122.613 40.0312C122.613 38.9115 123.027 38.0521 123.854 37.4531C124.687 36.8542 125.888 36.5514 127.457 36.5449H128.756V35.9395C128.756 35.4512 128.629 35.0605 128.375 34.7676C128.128 34.4746 127.734 34.3281 127.193 34.3281C126.718 34.3281 126.344 34.4421 126.07 34.6699C125.803 34.8978 125.67 35.2103 125.67 35.6074H122.848C122.848 34.9954 123.036 34.429 123.414 33.9082C123.792 33.3874 124.326 32.9805 125.016 32.6875C125.706 32.388 126.48 32.2383 127.34 32.2383C128.642 32.2383 129.674 32.5671 130.436 33.2246C131.204 33.8757 131.588 34.7936 131.588 35.9785V40.5586C131.594 41.5612 131.734 42.3197 132.008 42.834V43H129.156ZM126.822 41.0371C127.239 41.0371 127.623 40.946 127.975 40.7637C128.326 40.5749 128.587 40.3242 128.756 40.0117V38.1953H127.701C126.288 38.1953 125.536 38.6836 125.445 39.6602L125.436 39.8262C125.436 40.1777 125.559 40.4674 125.807 40.6953C126.054 40.9232 126.393 41.0371 126.822 41.0371ZM142.916 43H140.084V38.9375H136.578V43H133.756V32.4336H136.578V36.6719H140.084V32.4336H142.916V43ZM149.244 39.1035H148.111V43H145.289V32.4336H148.111V36.4082H149.117L151.422 32.4336H154.986L151.529 37.4629L155.309 43H151.549L149.244 39.1035Z" fill="white"/>
<path d="M25.364 103.408C24.708 103.408 24.092 103.284 23.516 103.036C22.94 102.796 22.432 102.46 21.992 102.028C21.56 101.588 21.22 101.08 20.972 100.504C20.732 99.928 20.612 99.312 20.612 98.656C20.612 97.992 20.732 97.376 20.972 96.808C21.22 96.232 21.56 95.728 21.992 95.296C22.432 94.856 22.94 94.516 23.516 94.276C24.092 94.028 24.708 93.904 25.364 93.904C26.028 93.904 26.644 94.028 27.212 94.276C27.788 94.516 28.292 94.856 28.724 95.296C29.164 95.728 29.504 96.232 29.744 96.808C29.992 97.376 30.116 97.992 30.116 98.656C30.116 99.312 29.992 99.928 29.744 100.504C29.504 101.08 29.164 101.588 28.724 102.028C28.292 102.46 27.788 102.796 27.212 103.036C26.644 103.284 26.028 103.408 25.364 103.408ZM36.0867 103.408C35.4307 103.408 34.8147 103.284 34.2387 103.036C33.6627 102.796 33.1547 102.46 32.7147 102.028C32.2827 101.588 31.9427 101.08 31.6947 100.504C31.4547 99.928 31.3347 99.312 31.3347 98.656C31.3347 97.992 31.4547 97.376 31.6947 96.808C31.9427 96.232 32.2827 95.728 32.7147 95.296C33.1547 94.856 33.6627 94.516 34.2387 94.276C34.8147 94.028 35.4307 93.904 36.0867 93.904C36.7507 93.904 37.3667 94.028 37.9347 94.276C38.5107 94.516 39.0147 94.856 39.4467 95.296C39.8867 95.728 40.2267 96.232 40.4667 96.808C40.7147 97.376 40.8387 97.992 40.8387 98.656C40.8387 99.312 40.7147 99.928 40.4667 100.504C40.2267 101.08 39.8867 101.588 39.4467 102.028C39.0147 102.46 38.5107 102.796 37.9347 103.036C37.3667 103.284 36.7507 103.408 36.0867 103.408ZM46.8093 103.408C46.1533 103.408 45.5373 103.284 44.9613 103.036C44.3853 102.796 43.8773 102.46 43.4373 102.028C43.0053 101.588 42.6653 101.08 42.4173 100.504C42.1773 99.928 42.0573 99.312 42.0573 98.656C42.0573 97.992 42.1773 97.376 42.4173 96.808C42.6653 96.232 43.0053 95.728 43.4373 95.296C43.8773 94.856 44.3853 94.516 44.9613 94.276C45.5373 94.028 46.1533 93.904 46.8093 93.904C47.4733 93.904 48.0893 94.028 48.6573 94.276C49.2333 94.516 49.7373 94.856 50.1693 95.296C50.6093 95.728 50.9493 96.232 51.1893 96.808C51.4373 97.376 51.5613 97.992 51.5613 98.656C51.5613 99.312 51.4373 99.928 51.1893 100.504C50.9493 101.08 50.6093 101.588 50.1693 102.028C49.7373 102.46 49.2333 102.796 48.6573 103.036C48.0893 103.284 47.4733 103.408 46.8093 103.408ZM57.532 103.408C56.876 103.408 56.26 103.284 55.684 103.036C55.108 102.796 54.6 102.46 54.16 102.028C53.728 101.588 53.388 101.08 53.14 100.504C52.9 99.928 52.78 99.312 52.78 98.656C52.78 97.992 52.9 97.376 53.14 96.808C53.388 96.232 53.728 95.728 54.16 95.296C54.6 94.856 55.108 94.516 55.684 94.276C56.26 94.028 56.876 93.904 57.532 93.904C58.196 93.904 58.812 94.028 59.38 94.276C59.956 94.516 60.46 94.856 60.892 95.296C61.332 95.728 61.672 96.232 61.912 96.808C62.16 97.376 62.284 97.992 62.284 98.656C62.284 99.312 62.16 99.928 61.912 100.504C61.672 101.08 61.332 101.588 60.892 102.028C60.46 102.46 59.956 102.796 59.38 103.036C58.812 103.284 58.196 103.408 57.532 103.408ZM76.9629 97.9316H78.7305V99.8359H76.9629V103H74.5898V99.8359H68.4473L68.3789 98.3906L74.5117 88.7812H76.9629V97.9316ZM70.8691 97.9316H74.5898V91.9941L74.4141 92.3066L70.8691 97.9316ZM89.8633 103H80.3027V101.369L85.0391 96.2031C85.7227 95.4414 86.2077 94.8066 86.4941 94.2988C86.7871 93.7845 86.9336 93.2702 86.9336 92.7559C86.9336 92.0788 86.7415 91.5319 86.3574 91.1152C85.9798 90.6986 85.4688 90.4902 84.8242 90.4902C84.056 90.4902 83.4603 90.7246 83.0371 91.1934C82.6139 91.6621 82.4023 92.3034 82.4023 93.1172H80.0293C80.0293 92.2513 80.2246 91.4733 80.6152 90.7832C81.0124 90.0866 81.5755 89.5462 82.3047 89.1621C83.0404 88.778 83.8867 88.5859 84.8438 88.5859C86.224 88.5859 87.3112 88.9342 88.1055 89.6309C88.9062 90.321 89.3066 91.278 89.3066 92.502C89.3066 93.2116 89.1048 93.957 88.7012 94.7383C88.304 95.513 87.6497 96.3952 86.7383 97.3848L83.2617 101.105H89.8633V103ZM98.0957 103H95.7324V91.584L92.2461 92.7754V90.7734L97.793 88.7324H98.0957V103ZM109.463 103H107.1V91.584L103.613 92.7754V90.7734L109.16 88.7324H109.463V103Z" fill="white"/>
<path d="M27.4902 135H25.127V123.584L21.6406 124.775V122.773L27.1875 120.732H27.4902V135ZM41.9922 135H32.4316V133.369L37.168 128.203C37.8516 127.441 38.3366 126.807 38.623 126.299C38.916 125.785 39.0625 125.27 39.0625 124.756C39.0625 124.079 38.8704 123.532 38.4863 123.115C38.1087 122.699 37.5977 122.49 36.9531 122.49C36.1849 122.49 35.5892 122.725 35.166 123.193C34.7428 123.662 34.5312 124.303 34.5312 125.117H32.1582C32.1582 124.251 32.3535 123.473 32.7441 122.783C33.1413 122.087 33.7044 121.546 34.4336 121.162C35.1693 120.778 36.0156 120.586 36.9727 120.586C38.3529 120.586 39.4401 120.934 40.2344 121.631C41.0352 122.321 41.4355 123.278 41.4355 124.502C41.4355 125.212 41.2337 125.957 40.8301 126.738C40.4329 127.513 39.7786 128.395 38.8672 129.385L35.3906 133.105H41.9922V135ZM44.6191 136.221H42.7539L48.3496 120.781H50.2148L44.6191 136.221ZM61.2695 135H51.709V133.369L56.4453 128.203C57.1289 127.441 57.6139 126.807 57.9004 126.299C58.1934 125.785 58.3398 125.27 58.3398 124.756C58.3398 124.079 58.1478 123.532 57.7637 123.115C57.3861 122.699 56.875 122.49 56.2305 122.49C55.4622 122.49 54.8665 122.725 54.4434 123.193C54.0202 123.662 53.8086 124.303 53.8086 125.117H51.4355C51.4355 124.251 51.6309 123.473 52.0215 122.783C52.4186 122.087 52.9818 121.546 53.7109 121.162C54.4466 120.778 55.293 120.586 56.25 120.586C57.6302 120.586 58.7174 120.934 59.5117 121.631C60.3125 122.321 60.7129 123.278 60.7129 124.502C60.7129 125.212 60.5111 125.957 60.1074 126.738C59.7103 127.513 59.056 128.395 58.1445 129.385L54.668 133.105H61.2695V135ZM69.502 135H67.1387V123.584L63.6523 124.775V122.773L69.1992 120.732H69.502V135Z" fill="white"/>
<defs>
<clipPath id="clip0_1_24">
<rect width="32" height="32" fill="white" transform="translate(20 20)"/>
</clipPath>
<clipPath id="clip1_1_24">
<rect width="33" height="20" fill="white" transform="translate(219 120)"/>
</clipPath>
</defs>
</svg>
