<svg width="272" height="160" viewBox="0 0 272 160" fill="none" xmlns="http://www.w3.org/2000/svg">
<path d="M0 12C0 5.37258 5.37258 0 12 0H260C266.627 0 272 5.37258 272 12V148C272 154.627 266.627 160 260 160H12C5.37258 160 0 154.627 0 148V12Z" fill="#2D2829"/>
<path d="M33.6739 21.5199L34.1321 20.5795L35.1782 21.0565L36.1459 20L37.1143 21.0565L38.1604 20.5795L38.6186 21.5199L39.5862 21.6233L38.9454 22.6247C38.2125 22.1994 37.1039 21.9546 36.1491 21.9546C35.1943 21.9546 34.0929 22.2121 33.3599 22.6375L32.7191 21.636L33.6739 21.5199ZM46.3977 37.5861L45.3644 38.7841C45.354 38.796 44.2285 40.1304 44.1428 41.8037C44.0299 44.0192 43.8937 45.0562 43.498 45.956C44.8261 45.7433 47.1146 44.7809 47.6152 40.7277L47.7178 39.894L48.4018 40.3227C48.4018 40.3227 48.6574 40.4701 49.0282 40.4701C49.4359 40.4701 49.8292 40.2998 50.2033 39.9618C49.0723 39.3221 47.729 37.8699 47.8892 35.2926L47.9188 34.8199L48.365 34.7775C48.3738 34.7767 49.4063 34.6606 49.9414 33.9413C50.1545 33.6549 50.2626 33.3101 50.269 32.895C46.3376 32.4434 44.4328 29.0468 43.808 27.6472C43.4259 27.9107 42.9173 28.3673 42.7515 29.007C42.5896 29.6322 42.7859 30.3499 43.337 31.1403C44.9166 33.405 45.861 35.2316 43.5132 37.6166C43.8873 37.7954 44.4208 37.9513 44.887 37.8649L46.3977 37.5861ZM42.8131 47.1201C42.6201 47.1201 42.5087 47.1082 42.5087 47.1082L41.6348 47.0108L42.1283 46.2432C42.7683 45.2553 42.9469 44.6851 43.0967 41.7444C43.1552 40.5947 43.5901 39.6017 43.9746 38.9332C43.0478 38.7392 42.3413 38.1843 42.3061 38.1563L41.775 37.7327L42.2877 37.2862C44.6899 35.1927 44.0491 34.0277 42.4935 31.7978C41.7406 30.7167 41.4883 29.6772 41.7438 28.7054C42.1603 27.1193 43.7936 26.3865 43.8625 26.356L44.3719 26.1323L44.5569 26.6813C44.625 26.8804 46.2799 31.5877 50.7865 31.8266L51.2182 31.8495L51.2783 32.3027C51.4016 33.2262 51.2262 34.0108 50.7592 34.6343C50.2217 35.3511 49.4263 35.6612 48.9249 35.7917C48.9698 38.5418 51.215 39.2128 51.239 39.2196L52 39.4356L51.517 40.0939C50.6166 41.3207 49.6666 41.5783 49.0282 41.5783C48.8544 41.5783 48.6958 41.5597 48.5548 41.5309C48.1735 43.6583 47.2772 45.2172 45.8834 46.1703C44.6755 46.9972 43.4411 47.1201 42.8131 47.1201ZM46.9616 27.6024C47.0874 27.5227 47.467 27.2796 48.1383 27.3719C49.2918 27.5312 49.8981 28.8249 51.722 28.6089C51.3608 29.7848 50.5718 29.784 49.8501 29.6484C48.7623 29.4451 48.5869 28.2098 46.9616 27.6024ZM24.279 39.9209L24.3856 40.7275C24.8854 44.7807 27.1739 45.744 28.5028 45.9567C28.1063 45.0569 27.9701 44.0199 27.8572 41.8043C27.7715 40.1175 26.6476 38.7975 26.6356 38.7839L25.6023 37.586L27.113 37.8647C27.5776 37.9511 28.1119 37.7952 28.486 37.6165C26.1398 35.2315 27.0842 33.4048 28.663 31.1402C29.2157 30.348 29.412 29.6287 29.2477 29.0026C29.0811 28.368 28.5733 27.9122 28.192 27.6478C27.5664 29.0483 25.6616 32.4432 21.731 32.8948C21.7374 33.3125 21.8471 33.659 22.0626 33.9462C22.5969 34.6587 23.6254 34.7765 23.6358 34.7774L24.0812 34.8206L24.1108 35.2925C24.271 37.8698 22.9285 39.3219 21.7967 39.9616C22.1708 40.2997 22.5649 40.4699 22.9718 40.4699C23.3458 40.4699 23.6022 40.3208 23.6046 40.32L24.279 39.9209ZM29.1869 47.1199C28.5589 47.1199 27.3253 46.9971 26.1166 46.171C24.7236 45.2179 23.8265 43.659 23.446 41.5315C23.305 41.5595 23.1456 41.5781 22.9718 41.5781C22.3334 41.5781 21.3834 41.3206 20.483 40.0938L20 39.4355L20.761 39.2194C20.8563 39.1915 23.0335 38.5171 23.0759 35.7923C22.5745 35.6619 21.7783 35.3509 21.2408 34.6342C20.7738 34.0106 20.5992 33.2261 20.7217 32.3026L20.7818 31.8493L21.2143 31.8273C25.7369 31.5867 27.427 26.7303 27.4439 26.6811L27.6289 26.1321L28.1375 26.3558C28.2072 26.3863 29.8405 27.1192 30.257 28.7052C30.5126 29.677 30.2594 30.7174 29.5065 31.7976C27.9517 34.0275 27.3109 35.1925 29.7123 37.286L30.225 37.7325L29.6939 38.1561C29.6587 38.1841 28.9522 38.739 28.0254 38.9331C28.4107 39.6015 28.8448 40.5945 28.9033 41.7442C29.0539 44.685 29.2325 45.256 29.8717 46.2439L30.3684 47.0106L29.4913 47.1081C29.4913 47.1081 29.3807 47.1199 29.1869 47.1199ZM25.0388 27.6024C23.4135 28.2098 23.2381 29.4451 22.1503 29.6484C21.4286 29.784 20.6396 29.7848 20.2784 28.6089C22.1023 28.8249 22.7086 27.5312 23.8621 27.3719C24.5334 27.2796 24.913 27.5227 25.0388 27.6024ZM39.7436 42.8736V34.7223H32.2838L32.283 42.8405C32.299 43.3963 32.4488 43.7479 32.77 43.9563L36.0141 45.6618L39.259 43.9563C39.4577 43.8284 39.7236 43.5768 39.7436 42.8736ZM31.2769 33.6582H40.7497V42.8736C40.7241 43.8216 40.3877 44.4943 39.7404 44.8917L36.8968 46.3879L36.0133 46.8505L35.1322 46.3879L32.2886 44.8917C31.6421 44.4943 31.3049 43.8216 31.2769 42.8736V33.6582ZM40.4062 48.5878L41.3618 48.7835C39.5611 50.0001 37.7636 50.4 36.18 50.4C33.4165 50.4 31.3058 49.1834 30.9598 48.9716L31.8633 48.7869L31.627 47.7753C32.086 48.054 36.3578 50.494 40.6304 47.6278L40.4062 48.5878ZM37.9765 30.7046C38.3362 30.1979 38.6486 29.7692 38.9642 29.4964L37.4583 28.6323L38.039 25.5771C36.2776 24.3605 34.303 25.4356 34.303 25.4356L34.8301 28.5484L33.4171 29.4727C33.7672 29.787 34.0587 30.2225 34.4376 30.7512C34.9358 31.4476 35.5727 31.6789 36.151 31.6789C36.7117 31.6789 37.4703 31.418 37.9765 30.7046ZM38.4435 28.0409L40.5526 29.3117C39.77 29.9285 39.3438 30.3928 38.9962 30.8732L38.9938 30.8757C38.5925 31.3765 37.9989 32.7227 36.1894 32.7227C34.8894 32.7227 34.0179 31.8865 33.5853 31.34C33.4932 31.1943 33.3883 31.0367 33.2697 30.88C33.2689 30.8791 33.2673 30.8757 33.2673 30.8757V30.8766C33.1992 30.7868 33.128 30.6987 33.0511 30.6148C32.7098 30.1895 32.2284 29.6591 31.7334 29.3244L33.8369 28.0409L33.1952 25.4534C33.1952 24.5875 34.5914 23.803 36.127 23.803C37.7002 23.803 39.0971 24.5875 39.0971 25.4534L38.4435 28.0409ZM38.1482 38.2368H36.5109V42.5662H35.4952V38.2368H33.8555V37.16H38.1482V38.2368Z" fill="white"/>
<g clip-path="url(#clip0_1_51)">
<path fill-rule="evenodd" clip-rule="evenodd" d="M234.853 121.692C232.414 123.667 230.86 126.655 230.86 130C230.86 133.345 232.414 136.333 234.853 138.308C233.167 139.417 231.196 140.005 229.184 140C223.559 140 219 135.523 219 130C219 124.477 223.559 120 229.184 120C231.283 120 233.233 120.623 234.853 121.692ZM236.147 138.308C238.586 136.333 240.14 133.345 240.14 130C240.14 126.655 238.586 123.667 236.147 121.692C237.833 120.583 239.804 119.995 241.816 120C247.441 120 252 124.477 252 130C252 135.523 247.441 140 241.816 140C239.804 140.005 237.833 139.417 236.147 138.308ZM235.5 122.155C237.856 123.988 239.368 126.822 239.368 130C239.368 133.18 237.856 136.013 235.5 137.845C233.144 136.012 231.632 133.178 231.632 130C231.632 126.82 233.144 123.987 235.5 122.155Z" fill="white"/>
</g>
<path d="M75.9727 31.1543H71.6172V43H68.6875V31.1543H64.3906V28.7812H75.9727V31.1543ZM82.9551 32.4336H85.7773V43H82.9551V36.4766L79.4199 43H76.5879V32.4336H79.4199V38.9473L82.9551 32.4336ZM97.0957 43H94.2637V38.9375H90.7578V43H87.9355V32.4336H90.7578V36.6719H94.2637V32.4336H97.0957V43ZM102.301 35.5293H104.322C105.234 35.5293 106.035 35.6823 106.725 35.9883C107.415 36.2943 107.942 36.7337 108.307 37.3066C108.678 37.873 108.863 38.5339 108.863 39.2891C108.863 40.4023 108.45 41.3008 107.623 41.9844C106.803 42.6615 105.683 43 104.264 43H99.4688V32.4336H102.301V35.5293ZM102.301 37.7949V40.7441H104.303C104.863 40.7441 105.292 40.6139 105.592 40.3535C105.891 40.0931 106.041 39.7383 106.041 39.2891C106.041 38.8333 105.895 38.472 105.602 38.2051C105.309 37.9316 104.876 37.7949 104.303 37.7949H102.301ZM114.596 39.1035H113.463V43H110.641V32.4336H113.463V36.4082H114.469L116.773 32.4336H120.338L116.881 37.4629L120.66 43H116.9L114.596 39.1035ZM120.719 37.6191C120.719 36.571 120.921 35.6367 121.324 34.8164C121.728 33.9961 122.307 33.3613 123.062 32.9121C123.824 32.4629 124.706 32.2383 125.709 32.2383C127.135 32.2383 128.297 32.6745 129.195 33.5469C130.1 34.4193 130.605 35.6042 130.709 37.1016L130.729 37.8242C130.729 39.4453 130.276 40.7474 129.371 41.7305C128.466 42.707 127.252 43.1953 125.729 43.1953C124.205 43.1953 122.988 42.707 122.076 41.7305C121.171 40.7539 120.719 39.4258 120.719 37.7461V37.6191ZM123.541 37.8242C123.541 38.8268 123.73 39.5951 124.107 40.1289C124.485 40.6562 125.025 40.9199 125.729 40.9199C126.412 40.9199 126.946 40.6595 127.33 40.1387C127.714 39.6113 127.906 38.7715 127.906 37.6191C127.906 36.6361 127.714 35.8743 127.33 35.334C126.946 34.7936 126.406 34.5234 125.709 34.5234C125.019 34.5234 124.485 34.7936 124.107 35.334C123.73 35.8678 123.541 36.6979 123.541 37.8242ZM132.047 37.7949C132.047 36.0957 132.392 34.7448 133.082 33.7422C133.779 32.7396 134.736 32.2383 135.953 32.2383C136.428 32.2383 136.861 32.3327 137.252 32.5215V28H140.074V32.5312C140.478 32.3359 140.924 32.2383 141.412 32.2383C142.636 32.2383 143.593 32.7396 144.283 33.7422C144.98 34.7383 145.328 36.1576 145.328 38C145.328 39.5951 144.98 40.8613 144.283 41.7988C143.587 42.7298 142.636 43.1953 141.432 43.1953C140.93 43.1953 140.478 43.1042 140.074 42.9219V47.0625H137.252V42.9316C136.861 43.1074 136.422 43.1953 135.934 43.1953C134.794 43.1953 133.88 42.7689 133.189 41.916C132.499 41.0632 132.122 39.8945 132.057 38.4102L132.047 37.7949ZM142.496 37.7949C142.496 36.7402 142.337 35.9329 142.018 35.373C141.699 34.8066 141.249 34.5234 140.67 34.5234C140.488 34.5234 140.289 34.5462 140.074 34.5918V40.8711C140.257 40.9102 140.462 40.9297 140.689 40.9297C141.796 40.9297 142.395 40.0898 142.486 38.4102L142.496 37.7949ZM134.869 38C134.869 39.9466 135.465 40.9199 136.656 40.9199C136.904 40.9199 137.102 40.9036 137.252 40.8711V34.5918C137.037 34.5462 136.845 34.5234 136.676 34.5234C136.096 34.5234 135.65 34.8001 135.338 35.3535C135.025 35.9004 134.869 36.7826 134.869 38ZM146.656 37.7949C146.656 36.0957 147.001 34.7448 147.691 33.7422C148.388 32.7396 149.345 32.2383 150.562 32.2383C151.038 32.2383 151.471 32.3327 151.861 32.5215V28H154.684V32.5312C155.087 32.3359 155.533 32.2383 156.021 32.2383C157.245 32.2383 158.202 32.7396 158.893 33.7422C159.589 34.7383 159.938 36.1576 159.938 38C159.938 39.5951 159.589 40.8613 158.893 41.7988C158.196 42.7298 157.245 43.1953 156.041 43.1953C155.54 43.1953 155.087 43.1042 154.684 42.9219V47.0625H151.861V42.9316C151.471 43.1074 151.031 43.1953 150.543 43.1953C149.404 43.1953 148.489 42.7689 147.799 41.916C147.109 41.0632 146.731 39.8945 146.666 38.4102L146.656 37.7949ZM157.105 37.7949C157.105 36.7402 156.946 35.9329 156.627 35.373C156.308 34.8066 155.859 34.5234 155.279 34.5234C155.097 34.5234 154.898 34.5462 154.684 34.5918V40.8711C154.866 40.9102 155.071 40.9297 155.299 40.9297C156.406 40.9297 157.005 40.0898 157.096 38.4102L157.105 37.7949ZM149.479 38C149.479 39.9466 150.074 40.9199 151.266 40.9199C151.513 40.9199 151.712 40.9036 151.861 40.8711V34.5918C151.646 34.5462 151.454 34.5234 151.285 34.5234C150.706 34.5234 150.26 34.8001 149.947 35.3535C149.635 35.9004 149.479 36.7826 149.479 38Z" fill="white"/>
<path d="M25.364 103.408C24.708 103.408 24.092 103.284 23.516 103.036C22.94 102.796 22.432 102.46 21.992 102.028C21.56 101.588 21.22 101.08 20.972 100.504C20.732 99.928 20.612 99.312 20.612 98.656C20.612 97.992 20.732 97.376 20.972 96.808C21.22 96.232 21.56 95.728 21.992 95.296C22.432 94.856 22.94 94.516 23.516 94.276C24.092 94.028 24.708 93.904 25.364 93.904C26.028 93.904 26.644 94.028 27.212 94.276C27.788 94.516 28.292 94.856 28.724 95.296C29.164 95.728 29.504 96.232 29.744 96.808C29.992 97.376 30.116 97.992 30.116 98.656C30.116 99.312 29.992 99.928 29.744 100.504C29.504 101.08 29.164 101.588 28.724 102.028C28.292 102.46 27.788 102.796 27.212 103.036C26.644 103.284 26.028 103.408 25.364 103.408ZM36.0867 103.408C35.4307 103.408 34.8147 103.284 34.2387 103.036C33.6627 102.796 33.1547 102.46 32.7147 102.028C32.2827 101.588 31.9427 101.08 31.6947 100.504C31.4547 99.928 31.3347 99.312 31.3347 98.656C31.3347 97.992 31.4547 97.376 31.6947 96.808C31.9427 96.232 32.2827 95.728 32.7147 95.296C33.1547 94.856 33.6627 94.516 34.2387 94.276C34.8147 94.028 35.4307 93.904 36.0867 93.904C36.7507 93.904 37.3667 94.028 37.9347 94.276C38.5107 94.516 39.0147 94.856 39.4467 95.296C39.8867 95.728 40.2267 96.232 40.4667 96.808C40.7147 97.376 40.8387 97.992 40.8387 98.656C40.8387 99.312 40.7147 99.928 40.4667 100.504C40.2267 101.08 39.8867 101.588 39.4467 102.028C39.0147 102.46 38.5107 102.796 37.9347 103.036C37.3667 103.284 36.7507 103.408 36.0867 103.408ZM46.8093 103.408C46.1533 103.408 45.5373 103.284 44.9613 103.036C44.3853 102.796 43.8773 102.46 43.4373 102.028C43.0053 101.588 42.6653 101.08 42.4173 100.504C42.1773 99.928 42.0573 99.312 42.0573 98.656C42.0573 97.992 42.1773 97.376 42.4173 96.808C42.6653 96.232 43.0053 95.728 43.4373 95.296C43.8773 94.856 44.3853 94.516 44.9613 94.276C45.5373 94.028 46.1533 93.904 46.8093 93.904C47.4733 93.904 48.0893 94.028 48.6573 94.276C49.2333 94.516 49.7373 94.856 50.1693 95.296C50.6093 95.728 50.9493 96.232 51.1893 96.808C51.4373 97.376 51.5613 97.992 51.5613 98.656C51.5613 99.312 51.4373 99.928 51.1893 100.504C50.9493 101.08 50.6093 101.588 50.1693 102.028C49.7373 102.46 49.2333 102.796 48.6573 103.036C48.0893 103.284 47.4733 103.408 46.8093 103.408ZM57.532 103.408C56.876 103.408 56.26 103.284 55.684 103.036C55.108 102.796 54.6 102.46 54.16 102.028C53.728 101.588 53.388 101.08 53.14 100.504C52.9 99.928 52.78 99.312 52.78 98.656C52.78 97.992 52.9 97.376 53.14 96.808C53.388 96.232 53.728 95.728 54.16 95.296C54.6 94.856 55.108 94.516 55.684 94.276C56.26 94.028 56.876 93.904 57.532 93.904C58.196 93.904 58.812 94.028 59.38 94.276C59.956 94.516 60.46 94.856 60.892 95.296C61.332 95.728 61.672 96.232 61.912 96.808C62.16 97.376 62.284 97.992 62.284 98.656C62.284 99.312 62.16 99.928 61.912 100.504C61.672 101.08 61.332 101.588 60.892 102.028C60.46 102.46 59.956 102.796 59.38 103.036C58.812 103.284 58.196 103.408 57.532 103.408ZM76.9629 97.9316H78.7305V99.8359H76.9629V103H74.5898V99.8359H68.4473L68.3789 98.3906L74.5117 88.7812H76.9629V97.9316ZM70.8691 97.9316H74.5898V91.9941L74.4141 92.3066L70.8691 97.9316ZM89.8633 103H80.3027V101.369L85.0391 96.2031C85.7227 95.4414 86.2077 94.8066 86.4941 94.2988C86.7871 93.7845 86.9336 93.2702 86.9336 92.7559C86.9336 92.0788 86.7415 91.5319 86.3574 91.1152C85.9798 90.6986 85.4688 90.4902 84.8242 90.4902C84.056 90.4902 83.4603 90.7246 83.0371 91.1934C82.6139 91.6621 82.4023 92.3034 82.4023 93.1172H80.0293C80.0293 92.2513 80.2246 91.4733 80.6152 90.7832C81.0124 90.0866 81.5755 89.5462 82.3047 89.1621C83.0404 88.778 83.8867 88.5859 84.8438 88.5859C86.224 88.5859 87.3112 88.9342 88.1055 89.6309C88.9062 90.321 89.3066 91.278 89.3066 92.502C89.3066 93.2116 89.1048 93.957 88.7012 94.7383C88.304 95.513 87.6497 96.3952 86.7383 97.3848L83.2617 101.105H89.8633V103ZM98.0957 103H95.7324V91.584L92.2461 92.7754V90.7734L97.793 88.7324H98.0957V103ZM109.463 103H107.1V91.584L103.613 92.7754V90.7734L109.16 88.7324H109.463V103Z" fill="white"/>
<path d="M27.4902 135H25.127V123.584L21.6406 124.775V122.773L27.1875 120.732H27.4902V135ZM41.9922 135H32.4316V133.369L37.168 128.203C37.8516 127.441 38.3366 126.807 38.623 126.299C38.916 125.785 39.0625 125.27 39.0625 124.756C39.0625 124.079 38.8704 123.532 38.4863 123.115C38.1087 122.699 37.5977 122.49 36.9531 122.49C36.1849 122.49 35.5892 122.725 35.166 123.193C34.7428 123.662 34.5312 124.303 34.5312 125.117H32.1582C32.1582 124.251 32.3535 123.473 32.7441 122.783C33.1413 122.087 33.7044 121.546 34.4336 121.162C35.1693 120.778 36.0156 120.586 36.9727 120.586C38.3529 120.586 39.4401 120.934 40.2344 121.631C41.0352 122.321 41.4355 123.278 41.4355 124.502C41.4355 125.212 41.2337 125.957 40.8301 126.738C40.4329 127.513 39.7786 128.395 38.8672 129.385L35.3906 133.105H41.9922V135ZM44.6191 136.221H42.7539L48.3496 120.781H50.2148L44.6191 136.221ZM61.2695 135H51.709V133.369L56.4453 128.203C57.1289 127.441 57.6139 126.807 57.9004 126.299C58.1934 125.785 58.3398 125.27 58.3398 124.756C58.3398 124.079 58.1478 123.532 57.7637 123.115C57.3861 122.699 56.875 122.49 56.2305 122.49C55.4622 122.49 54.8665 122.725 54.4434 123.193C54.0202 123.662 53.8086 124.303 53.8086 125.117H51.4355C51.4355 124.251 51.6309 123.473 52.0215 122.783C52.4186 122.087 52.9818 121.546 53.7109 121.162C54.4466 120.778 55.293 120.586 56.25 120.586C57.6302 120.586 58.7174 120.934 59.5117 121.631C60.3125 122.321 60.7129 123.278 60.7129 124.502C60.7129 125.212 60.5111 125.957 60.1074 126.738C59.7103 127.513 59.056 128.395 58.1445 129.385L54.668 133.105H61.2695V135ZM69.502 135H67.1387V123.584L63.6523 124.775V122.773L69.1992 120.732H69.502V135Z" fill="white"/>
<defs>
<clipPath id="clip0_1_51">
<rect width="33" height="20" fill="white" transform="translate(219 120)"/>
</clipPath>
</defs>
</svg>
